<svg width="59" height="65" viewBox="0 0 59 65" fill="none" xmlns="http://www.w3.org/2000/svg">
<path d="M0 19.0929V45.9071C0 47.9425 1.10443 49.8213 2.90346 50.8356L26.5965 64.2393C28.3956 65.2536 30.6044 65.2536 32.4035 64.2393L56.0965 50.8356C57.8956 49.8213 59 47.9425 59 45.9071V19.0929C59 17.0575 57.8956 15.1787 56.0965 14.1644L32.4035 0.760722C30.6044 -0.253574 28.3956 -0.253574 26.5965 0.760722L2.90346 14.1644C1.10443 15.1787 0 17.0575 0 19.0929Z" fill="url(#paint0_linear_231_11107)"/>
<g clip-path="url(#clip0_231_11107)">
<path d="M48.4836 28.9972L43.9555 28.1651C43.8492 28.1667 43.7438 28.1683 43.6375 28.17C43.5654 28.1789 43.494 28.1943 43.425 28.2178C43.361 28.2381 43.2985 28.2649 43.2393 28.2973C43.2085 28.3143 43.1728 28.3184 43.1436 28.3387C43.1144 28.3654 43.0868 28.3938 43.0617 28.423C43.0284 28.4433 42.9968 28.466 42.9668 28.4903C42.9473 28.5179 42.9295 28.5471 42.9133 28.5763C42.8265 28.6931 42.7616 28.8245 42.721 28.9648C42.7146 28.9899 42.6975 29.0102 42.6927 29.0362L41.8605 33.5643C41.8054 33.8481 41.867 34.1425 42.03 34.381C42.1931 34.6203 42.4453 34.7833 42.7292 34.836C43.013 34.8887 43.3074 34.8246 43.5451 34.6592C43.7827 34.4937 43.9441 34.2407 43.9944 33.9552L44.4194 31.6437C45.3521 32.8984 45.8687 34.4142 45.8947 35.9779C45.8947 41.9611 38.1062 46.829 28.5325 46.829C18.9589 46.829 11.1704 41.9619 11.1704 35.9788C11.2604 33.6405 12.3367 31.4499 14.1323 29.951C14.5719 29.5439 14.5979 28.8569 14.1907 28.4173C13.7836 27.9777 13.0966 27.9518 12.657 28.3589C10.412 30.2649 9.08192 33.0346 9 35.9788C9 43.159 17.7626 49.0002 28.5325 49.0002C39.3025 49.0002 48.0651 43.159 48.0651 35.9788C48.0488 34.149 47.5022 32.3639 46.4924 30.8383L48.091 31.1319C48.6774 31.2349 49.2378 30.8448 49.3457 30.2592C49.4536 29.6737 49.0683 29.1108 48.4836 28.998V28.9972Z" fill="white"/>
<path d="M18.2815 36.9496L28.0473 41.8216C28.3523 41.9741 28.7108 41.9741 29.0166 41.8216L38.7824 36.9496C39.1506 36.7655 39.3834 36.3892 39.3834 35.978V22.9574C39.3834 22.86 39.3688 22.7635 39.3428 22.6694C39.3339 22.6386 39.3185 22.6111 39.3072 22.581C39.2496 22.4342 39.1636 22.2996 39.0541 22.1852C39.0233 22.1577 38.9917 22.1317 38.9584 22.1074C38.93 22.0814 38.9 22.0571 38.8684 22.0344C38.853 22.0247 38.8359 22.0214 38.8205 22.0125C38.8067 22.0052 38.7962 21.993 38.7816 21.9857L29.0157 17.1137C28.7108 16.9621 28.3523 16.9621 28.0465 17.1137L18.2815 21.9857C18.2669 21.993 18.2563 22.0044 18.2426 22.0125C18.2271 22.0214 18.2101 22.0247 18.1947 22.0344C18.1631 22.0571 18.1331 22.0814 18.1047 22.1074C18.0714 22.1317 18.0398 22.1577 18.009 22.1852C17.893 22.2939 17.8054 22.4302 17.7559 22.581C17.7446 22.6111 17.7292 22.6386 17.7202 22.6694C17.6943 22.7635 17.6805 22.86 17.6797 22.9574V35.9788C17.6797 36.39 17.9125 36.7663 18.2807 36.9496H18.2815ZM19.8509 24.7109L27.4472 28.5001V39.0965L19.8509 35.3072V24.7109ZM29.6167 39.0965V28.5001L37.213 24.7109V35.3064L29.6167 39.0965ZM28.5315 19.2971L35.8667 22.9566L28.5315 26.616L21.1964 22.9566L28.5324 19.2971H28.5315Z" fill="white"/>
</g>
<defs>
<linearGradient id="paint0_linear_231_11107" x1="0" y1="0" x2="65.6695" y2="7.63507" gradientUnits="userSpaceOnUse">
<stop stop-color="#FF512F"/>
<stop offset="1" stop-color="#DD2476"/>
</linearGradient>
<clipPath id="clip0_231_11107">
<rect width="40.3636" height="32" fill="white" transform="translate(9 17)"/>
</clipPath>
</defs>
</svg>
