<svg width="121" height="110" viewBox="0 0 121 110" fill="none" xmlns="http://www.w3.org/2000/svg">
<g clip-path="url(#clip0_4_182)">
<path d="M100.293 76.7932C100.103 77.366 100.094 77.6374 99.9577 77.7851C88.5957 89.4431 74.9167 95.8414 58.494 95.7069C54.3209 95.6691 50.2845 94.5536 46.5304 92.6056C38.4293 88.4058 34.1894 79.8632 35.7569 70.8915C36.5708 66.2448 38.0794 61.9337 41.5542 58.5004C43.7694 58.6864 45.9366 59.0096 48.1145 59.0226C51.5417 59.041 54.6052 57.9496 56.984 55.3522C58.7736 53.3977 59.3203 51.2441 58.3511 49.718C57.1312 47.7968 55.0969 47.3407 53.1885 47.8758C50.5207 48.615 47.9377 49.7571 45.437 50.9812C43.82 51.7726 42.4176 53.0132 40.9495 54.0351C32.8986 50.8164 31.1768 42.07 36.9151 33.3779C38.1585 33.3427 39.4933 33.3837 40.8073 33.2479C45.5343 32.7596 49.53 30.8639 52.1411 26.7502C53.1224 25.2071 53.7696 23.3898 52.6028 21.5748C51.698 20.1734 49.5932 19.6851 47.2517 20.3995C43.5356 21.5403 40.5626 23.8725 37.8361 26.552C36.8891 27.4857 36.0056 28.4813 35.1305 29.4084C22.4926 24.8897 16.0687 11.0875 23.9436 0.858798C22.9769 0.748201 22.1881 0.413748 21.6617 0.657072C21.0765 0.9178 20.5713 1.63512 20.2884 2.27194C17.6433 8.25373 16.9827 14.2733 20.4177 20.1952C22.9816 24.6063 26.5495 28.0737 30.8675 30.78C31.4799 31.1666 32.0888 31.5681 32.6885 31.9752C32.7761 32.0349 32.813 32.1765 32.9907 32.4842C32.7796 33.1145 32.5431 33.9186 32.2287 34.6887C28.3381 44.2306 29.7879 50.0519 37.948 56.8531C37.4336 57.7089 36.9014 58.6075 36.3469 59.5008C33.0774 64.7491 31.6023 70.4438 32.134 76.6116C33.0017 86.7591 39.6776 94.7503 49.7374 97.7702C55.2129 99.4126 60.7782 99.7786 66.4146 98.9809C80.0761 97.0341 91.8083 91.3338 101.059 80.9057C101.548 80.3565 102.043 79.8165 102.543 79.2856C102.614 79.2164 102.756 79.2108 103.32 79.0389C103.323 81.6816 102.524 84.0103 101.869 86.3573C101.225 88.6599 100.484 90.9398 99.7276 93.4193C101.711 93.6601 102.713 92.8253 103.428 91.6493C104.247 90.2948 105.187 88.9294 105.593 87.4383C106.692 83.4373 107.729 79.4057 108.417 75.3235C108.971 72.0772 107.454 70.7892 104.516 71.6132C98.2926 73.3748 92.0756 75.1768 85.8755 77.0063C84.9013 77.2926 84.0041 77.8159 82.7731 78.3622C84.0559 80.1497 85.3874 79.8069 86.6408 79.563C91.0674 78.6913 95.4879 77.779 100.29 76.808L100.293 76.7932ZM49.8157 23.3176C47.9261 28.2502 43.9119 30.6888 39.2769 29.7917C42.3585 26.8988 45.1517 24.1022 49.8157 23.3176ZM55.4256 51.0531C53.3943 55.194 49.9356 56.5362 45.5174 55.018C48.5133 52.7538 51.355 50.8127 55.4256 51.0531Z" fill="url(#paint0_linear_4_182)"/>
</g>
<defs>
<linearGradient id="paint0_linear_4_182" x1="10.1509" y1="43.0595" x2="110.618" y2="66.7402" gradientUnits="userSpaceOnUse">
<stop stop-color="#F18B14"/>
<stop offset="1" stop-color="#E64411"/>
</linearGradient>
<clipPath id="clip0_4_182">
<rect width="88.4851" height="103.215" fill="white" transform="matrix(-0.229419 0.973328 0.973328 0.229419 20.3003 0)"/>
</clipPath>
</defs>
</svg>
