<svg width="16" height="16" viewBox="0 0 16 16" fill="none" xmlns="http://www.w3.org/2000/svg">
<circle cx="8" cy="8" r="8" fill="#F5AC37"/>
<path d="M8.19551 8.37173H10.1964C10.2391 8.37173 10.2592 8.37173 10.2623 8.31581C10.2787 8.11226 10.2787 7.90752 10.2623 7.70373C10.2623 7.66416 10.2426 7.64781 10.1998 7.64781H6.21757C6.16828 7.64781 6.15501 7.66416 6.15501 7.71037V8.29614C6.15501 8.37173 6.15501 8.37173 6.23392 8.37173H8.19551ZM10.0389 6.96322C10.0445 6.94829 10.0445 6.93194 10.0389 6.91724C10.0054 6.8445 9.96587 6.77507 9.9199 6.7099C9.85071 6.59853 9.76919 6.49592 9.6763 6.40374C9.63247 6.34806 9.58176 6.29806 9.52488 6.25564C9.24005 6.01322 8.90143 5.84166 8.53745 5.75541C8.3538 5.71417 8.16613 5.69451 7.97798 5.69617H6.2107C6.16141 5.69617 6.15477 5.71583 6.15477 5.75872V6.92696C6.15477 6.97625 6.15477 6.98952 6.21733 6.98952H10.0152C10.0152 6.98952 10.0481 6.98288 10.0547 6.96322H10.0386H10.0389ZM10.0389 9.05632C9.98294 9.05016 9.92654 9.05016 9.87062 9.05632H6.22088C6.1716 9.05632 6.15501 9.05632 6.15501 9.1222V10.2644C6.15501 10.317 6.15501 10.3302 6.22088 10.3302H7.90594C7.98651 10.3364 8.06708 10.3307 8.14599 10.3139C8.39053 10.2964 8.63105 10.2433 8.86043 10.1558C8.94385 10.1269 9.02441 10.0893 9.10048 10.044H9.12347C9.51849 9.83855 9.83934 9.5158 10.0417 9.11959C10.0417 9.11959 10.0647 9.06983 10.0389 9.0568V9.05632ZM5.49364 10.9224V10.9028V10.1359V9.87599V9.10253C5.49364 9.05964 5.49364 9.05324 5.44103 9.05324H4.72682C4.68725 9.05324 4.6709 9.05324 4.6709 9.00064V8.37529H5.4344C5.47705 8.37529 5.49364 8.37529 5.49364 8.31937V7.70065C5.49364 7.66108 5.49364 7.65136 5.44103 7.65136H4.72682C4.68725 7.65136 4.6709 7.65136 4.6709 7.59875V7.01961C4.6709 6.98336 4.6709 6.97364 4.7235 6.97364H5.43108C5.48037 6.97364 5.49364 6.97364 5.49364 6.91108V5.13717C5.49364 5.08456 5.49364 5.07129 5.55952 5.07129H8.02774C8.20689 5.0784 8.38485 5.09807 8.56091 5.13053C8.9237 5.19759 9.27228 5.32721 9.591 5.51228C9.80237 5.63669 9.99692 5.78692 10.1701 5.95991C10.3005 6.09521 10.418 6.24166 10.5223 6.39758C10.6258 6.55564 10.7118 6.72459 10.7794 6.90113C10.7877 6.9471 10.8317 6.97814 10.8777 6.97032H11.4668C11.5424 6.97032 11.5424 6.97032 11.5457 7.04284V7.58264C11.5457 7.63525 11.5261 7.64852 11.4732 7.64852H11.0189C10.973 7.64852 10.9597 7.64852 10.963 7.70776C10.981 7.90823 10.981 8.10941 10.963 8.30989C10.963 8.36581 10.963 8.37244 11.0258 8.37244H11.5455C11.5685 8.40207 11.5455 8.43169 11.5455 8.46154C11.5488 8.4997 11.5488 8.53832 11.5455 8.57647V8.97481C11.5455 9.03073 11.5291 9.04732 11.4796 9.04732H10.8576C10.8142 9.03903 10.772 9.06675 10.7621 9.10988C10.614 9.49495 10.377 9.8402 10.0708 10.117C9.959 10.2177 9.84147 10.3125 9.71872 10.3999C9.58697 10.4757 9.45877 10.5547 9.3237 10.6172C9.07512 10.7291 8.81446 10.8115 8.54693 10.8639C8.2929 10.9094 8.03532 10.93 7.7768 10.9265H5.49269V10.9231L5.49364 10.9224Z" fill="white"/>
</svg>
