<svg width="24" height="21" viewBox="0 0 24 21" fill="none" xmlns="http://www.w3.org/2000/svg">
<path d="M21.9256 1.60926L21.8483 1.41027C21.846 1.40456 21.8417 1.39985 21.8361 1.3973L21.6442 1.30885C20.0639 0.58061 17.8349 0.400922 15.8628 0.321289H13.6415C13.6165 0.321289 13.6088 0.355675 13.6314 0.366661L18.194 2.58603C18.2197 2.5985 18.2055 2.63736 18.1778 2.63003C16.1259 2.08632 14.0529 1.81111 12.006 1.81111C9.96564 1.81111 7.89942 2.08464 5.85375 2.62488C5.82592 2.63221 5.81179 2.59292 5.83791 2.58069L10.5606 0.366909C10.5835 0.356171 10.576 0.321413 10.5508 0.321413H8.14925C6.17718 0.401046 3.94806 0.580734 2.36786 1.30898L2.1759 1.39743C2.17033 1.39997 2.16593 1.40463 2.16373 1.4104L2.0864 1.60939C0.469202 5.76708 0.00966173 12.8254 0.499728 17.2472L0.525421 17.4791L0.707231 17.6221C3.2336 19.6098 6.6117 20.6318 8.73683 20.9029L9.01163 20.938C9.10094 20.9494 9.18628 20.897 9.21784 20.8115L10.601 17.0622C10.6441 16.9453 10.5707 16.8177 10.4492 16.7983L10.0248 16.7307C8.54481 16.4947 6.44794 15.8693 4.67591 14.2388C4.6381 14.204 4.67456 14.1414 4.7224 14.1594C4.8664 14.2137 5.02521 14.2767 5.18873 14.3415C5.58942 14.5003 6.00381 14.6645 6.2742 14.7297C8.17452 15.1881 10.1016 15.4206 12.0059 15.4206V15.3863H12.0098L12.0101 15.4206C13.9105 15.4206 15.8375 15.1882 17.7376 14.7297C18.0081 14.6645 18.4225 14.5003 18.8233 14.3414C18.9867 14.2766 19.1454 14.2137 19.2894 14.1594C19.3372 14.1414 19.3737 14.2041 19.3359 14.2388C17.5698 15.8621 15.4703 16.4859 13.987 16.7217L13.5627 16.7891C13.4412 16.8084 13.3677 16.9359 13.4107 17.0527L14.7941 20.8113C14.8256 20.8969 14.911 20.9494 15.0003 20.9379L15.2754 20.9029C17.4004 20.6317 20.7782 19.6097 23.3047 17.6221L23.4865 17.479L23.5122 17.2471C24.0023 12.8254 23.5428 5.76702 21.9256 1.60926ZM7.49157 11.8171C5.77361 11.9725 4.34037 10.5184 4.49336 8.77539C4.61069 7.43925 5.67109 6.36324 6.98805 6.24407C8.706 6.08865 10.1393 7.54272 9.98625 9.28578C9.86886 10.6219 8.80847 11.6979 7.49157 11.8171ZM17.0241 11.8171C15.3061 11.9725 13.8729 10.5184 14.0259 8.77539C14.1432 7.43925 15.2036 6.36324 16.5206 6.24407C18.2385 6.08865 19.6718 7.54272 19.5188 9.28578C19.4014 10.6219 18.341 11.6979 17.0241 11.8171Z" fill="white"/>
</svg>
