<svg width="25" height="24" viewBox="0 0 25 24" fill="none" xmlns="http://www.w3.org/2000/svg">
<g clip-path="url(#clip0_210_7732)">
<path d="M22.5866 6.27045C21.5086 4.43188 20.0464 2.97628 18.1996 1.90333C16.3526 0.830314 14.3361 0.293945 12.1488 0.293945C9.96185 0.293945 7.94473 0.830478 6.09804 1.90333C4.25107 2.97623 2.78893 4.43188 1.71097 6.27045C0.633166 8.10897 0.0942383 10.1166 0.0942383 12.2934C0.0942383 14.9082 0.860601 17.2595 2.39371 19.3479C3.92666 21.4365 5.907 22.8817 8.33456 23.6837C8.61714 23.7359 8.82632 23.6992 8.96233 23.5745C9.0984 23.4496 9.16635 23.2932 9.16635 23.1059C9.16635 23.0746 9.16365 22.7935 9.15843 22.2622C9.15304 21.7309 9.15051 21.2673 9.15051 20.8718L8.78949 20.934C8.5593 20.976 8.26892 20.9938 7.91834 20.9887C7.56793 20.9838 7.20415 20.9473 6.82751 20.8793C6.45071 20.812 6.10024 20.6557 5.77582 20.4109C5.45158 20.1661 5.22139 19.8457 5.08533 19.4502L4.92837 19.0906C4.82375 18.8512 4.65905 18.5853 4.43403 18.2938C4.20901 18.0021 3.98147 17.8043 3.75128 17.7002L3.64139 17.6219C3.56816 17.5698 3.50021 17.5071 3.43737 17.4342C3.37459 17.3614 3.32759 17.2885 3.29619 17.2155C3.26475 17.1424 3.29081 17.0825 3.37464 17.0355C3.45848 16.9885 3.61 16.9657 3.82984 16.9657L4.14365 17.0123C4.35294 17.0541 4.61182 17.1788 4.92062 17.3873C5.22925 17.5955 5.48297 17.8663 5.68182 18.1995C5.92261 18.6267 6.21272 18.9522 6.55296 19.1762C6.89293 19.4002 7.23571 19.512 7.58096 19.512C7.9262 19.512 8.22439 19.4859 8.47563 19.4341C8.72659 19.382 8.96206 19.3037 9.1819 19.1996C9.27608 18.5014 9.53249 17.9651 9.95091 17.5901C9.35453 17.5277 8.81835 17.4338 8.34209 17.3088C7.86611 17.1837 7.37425 16.9807 6.86682 16.6992C6.35912 16.4181 5.93795 16.069 5.6032 15.6525C5.2684 15.2358 4.99363 14.6888 4.77928 14.0119C4.56482 13.3347 4.45756 12.5535 4.45756 11.6682C4.45756 10.4076 4.87098 9.33483 5.69765 8.44937C5.3104 7.50162 5.34696 6.43917 5.80743 5.26213C6.1109 5.16827 6.56093 5.23871 7.15731 5.47299C7.7538 5.70738 8.19053 5.90817 8.46793 6.07464C8.74534 6.24107 8.96761 6.38209 9.13507 6.49647C10.1084 6.22574 11.1129 6.09035 12.1487 6.09035C13.1846 6.09035 14.1893 6.22574 15.1627 6.49647L15.7591 6.12165C16.167 5.87156 16.6486 5.64236 17.2029 5.43402C17.7575 5.22579 18.1816 5.16844 18.4747 5.26229C18.9454 6.43939 18.9873 7.50179 18.6 8.44953C19.4266 9.335 19.8402 10.408 19.8402 11.6683C19.8402 12.5537 19.7325 13.3373 19.5184 14.0197C19.304 14.7022 19.0269 15.2487 18.6869 15.6603C18.3465 16.0719 17.9227 16.4183 17.4152 16.6994C16.9077 16.9806 16.4157 17.1837 15.9397 17.3088C15.4635 17.4339 14.9273 17.5279 14.3309 17.5904C14.8749 18.059 15.1469 18.7986 15.1469 19.8089V23.1055C15.1469 23.2927 15.2123 23.4491 15.3433 23.574C15.4741 23.6987 15.6806 23.7355 15.9632 23.6832C18.3911 22.8813 20.3714 21.436 21.9043 19.3475C23.437 17.2591 24.2037 14.9078 24.2037 12.293C24.2031 10.1165 23.6639 8.10897 22.5866 6.27045Z" fill="white"/>
</g>
<defs>
<clipPath id="clip0_210_7732">
<rect width="24.1096" height="24" fill="white" transform="translate(0.0942383)"/>
</clipPath>
</defs>
</svg>
