<svg width="25" height="24" viewBox="0 0 25 24" fill="none" xmlns="http://www.w3.org/2000/svg">
<path d="M20.9668 0H4.89375C3.82804 0 2.80598 0.421427 2.05241 1.17157C1.29884 1.92172 0.875488 2.93913 0.875488 4L0.875488 20C0.875488 21.0609 1.29884 22.0783 2.05241 22.8284C2.80598 23.5786 3.82804 24 4.89375 24H20.9668C22.0325 24 23.0546 23.5786 23.8082 22.8284C24.5617 22.0783 24.9851 21.0609 24.9851 20V4C24.9851 2.93913 24.5617 1.92172 23.8082 1.17157C23.0546 0.421427 22.0325 0 20.9668 0V0ZM22.9759 20C22.9759 20.5304 22.7643 21.0391 22.3875 21.4142C22.0107 21.7893 21.4997 22 20.9668 22H4.89375C4.3609 22 3.84987 21.7893 3.47308 21.4142C3.0963 21.0391 2.88462 20.5304 2.88462 20V4C2.88462 3.46957 3.0963 2.96086 3.47308 2.58579C3.84987 2.21071 4.3609 2 4.89375 2H20.9668C21.4997 2 22.0107 2.21071 22.3875 2.58579C22.7643 2.96086 22.9759 3.46957 22.9759 4V20Z" fill="white"/>
<path d="M12.9302 6C11.7381 6 10.5728 6.35189 9.58159 7.01118C8.59039 7.67047 7.81784 8.60754 7.36164 9.7039C6.90544 10.8003 6.78608 12.0067 7.01865 13.1705C7.25122 14.3344 7.82527 15.4035 8.66822 16.2426C9.51117 17.0818 10.5851 17.6532 11.7543 17.8847C12.9235 18.1162 14.1355 17.9974 15.2368 17.5433C16.3382 17.0892 17.2795 16.3201 17.9418 15.3334C18.6041 14.3467 18.9576 13.1867 18.9576 12C18.9576 10.4087 18.3226 8.88258 17.1922 7.75736C16.0619 6.63214 14.5288 6 12.9302 6ZM12.9302 16C12.1355 16 11.3586 15.7654 10.6978 15.3259C10.037 14.8864 9.52197 14.2616 9.21784 13.5307C8.91371 12.7998 8.83413 11.9956 8.98918 11.2196C9.14422 10.4437 9.52693 9.73098 10.0889 9.17157C10.6509 8.61216 11.3668 8.2312 12.1463 8.07686C12.9258 7.92252 13.7337 8.00173 14.468 8.30448C15.2022 8.60723 15.8298 9.11992 16.2713 9.77772C16.7128 10.4355 16.9485 11.2089 16.9485 12C16.9485 13.0609 16.5251 14.0783 15.7716 14.8284C15.018 15.5786 13.9959 16 12.9302 16Z" fill="white"/>
<path d="M19.46 7C20.2922 7 20.9668 6.32843 20.9668 5.5C20.9668 4.67157 20.2922 4 19.46 4C18.6278 4 17.9531 4.67157 17.9531 5.5C17.9531 6.32843 18.6278 7 19.46 7Z" fill="white"/>
</svg>
