<svg width="28" height="22" viewBox="0 0 28 22" fill="none" xmlns="http://www.w3.org/2000/svg">
<path d="M25.0389 3.16052L27.172 1.10881V0.660156H19.784L14.519 13.8425L8.53081 0.660156H0.7837V1.11049L3.27587 4.12673C3.51807 4.34853 3.64669 4.6762 3.61328 5.00387V16.8588C3.69012 17.2856 3.55148 17.7242 3.25416 18.035L0.446289 21.4562V21.8998H8.40219V21.4495L5.596 18.0333C5.29199 17.7225 5.14834 17.2906 5.21014 16.8571V6.60357L12.1939 21.9049H13.0057L19.0106 6.60357V18.7929C19.0106 19.1155 19.0106 19.181 18.8002 19.3911L16.6387 21.4932V21.9435H27.1202V21.4932L25.0373 19.4415C24.8552 19.3037 24.76 19.0701 24.7984 18.8433V3.75873C24.7633 3.53188 24.8569 3.29831 25.0389 3.16052Z" fill="white"/>
</svg>
