<svg width="191" height="75" viewBox="0 0 191 75" fill="none" xmlns="http://www.w3.org/2000/svg">
<path fill-rule="evenodd" clip-rule="evenodd" d="M133.734 0.673706C142.889 0.673706 149.787 5.8612 151.91 14.3498H141.628C140.036 11.0487 137.118 9.36444 133.602 9.36444C127.831 9.36444 123.917 13.6761 123.917 20.6152C123.917 27.5543 127.831 31.866 133.602 31.866C137.184 31.866 140.036 30.1818 141.628 26.8806H151.91C149.721 35.3019 142.822 40.4894 133.734 40.4894C122.391 40.4894 114.431 32.3376 114.431 20.6826C114.431 9.02759 122.458 0.673706 133.734 0.673706ZM10.3531 8.7581H24.4823V1.14529H1V40.1525H24.4823V32.5397H10.3531V23.9837H22.8902V16.6404H10.3531V8.7581ZM64.9462 40.1525V1.14529H55.5931V25.3311L39.9382 1.14529H30.5851V40.0852H39.9382V16.0341L55.5931 40.1525H64.9462ZM167.034 24.0511H181.561V40.1525H190.915V1.14529H181.561V16.4383H167.034V1.14529H157.681V40.0852H167.034V24.0511Z" fill="url(#paint0_linear_281_7630)"/>
<g clip-path="url(#clip0_281_7630)">
<path d="M76.4062 5.33345C78.4024 4.64727 80.4907 4.30418 82.7018 4.30418C89.8573 4.30418 96.0608 8.29648 99.5618 14.0666C99.5925 14.129 99.6539 14.1914 99.6846 14.2537C99.6846 14.2849 99.7153 14.2849 99.7153 14.3161C100.729 16.0316 101.282 18.0589 101.282 20.211C101.282 26.6049 96.1836 31.8136 89.8573 31.8136C85.9571 31.8136 82.4869 29.7863 80.4293 26.6985C83.6539 32.0943 90.1644 36.1178 97.0742 36.1178C99.2854 36.1178 101.404 35.7435 103.37 35.0573C107.331 31.3769 109.788 26.0747 109.788 20.211C109.788 9.04503 100.882 -1.63454e-05 89.888 -1.58573e-05C84.698 -1.56269e-05 79.9686 2.02733 76.4062 5.33345Z" fill="url(#paint1_linear_281_7630)"/>
<path d="M80.4293 26.6985C79.2009 24.8583 78.4638 22.6126 78.4638 20.211C78.4638 13.8171 83.5617 8.60838 89.888 8.60838C93.9725 8.60838 97.5656 10.7917 99.5617 14.0666C96.0608 8.29648 89.8573 4.30418 82.7018 4.30418C80.4907 4.30418 78.3717 4.67846 76.4062 5.33345C72.4753 9.04503 69.9878 14.3161 69.9878 20.211C69.9878 31.3769 78.8938 40.422 89.888 40.422C95.078 40.422 99.8381 38.3947 103.37 35.0573C101.374 35.7435 99.2546 36.1178 97.0742 36.1178C90.1644 36.1178 83.6538 32.0943 80.4293 26.6985Z" fill="url(#paint2_linear_281_7630)"/>
</g>
<path d="M88.9482 14.7833C89.2784 14.2114 90.1038 14.2114 90.434 14.7833L94.7923 22.332C95.1225 22.9039 94.7098 23.6188 94.0494 23.6188H85.3328C84.6724 23.6188 84.2597 22.9039 84.5899 22.332L88.9482 14.7833Z" fill="#BF20C3"/>
<path d="M1.044 67.2937L1.296 52.7137H4.446L6.246 61.9117L8.172 52.7137H11.214L11.466 67.2937H9.306L9.072 57.4117L7.218 67.2937H5.364L3.42 57.3397L3.222 67.2937H1.044ZM21.5336 67.2937L24.3596 52.7137H27.6536L30.4616 67.2937H27.7076L27.1856 64.0897H24.8816L24.3236 67.2937H21.5336ZM25.1516 62.2717H26.8976L26.0156 56.3857L25.1516 62.2717ZM40.4737 67.2937V52.7137H44.2537C45.2377 52.7137 46.0777 52.8277 46.7737 53.0557C47.4817 53.2717 48.0217 53.6617 48.3937 54.2257C48.7777 54.7897 48.9697 55.5697 48.9697 56.5657C48.9697 57.1657 48.9157 57.6997 48.8077 58.1677C48.7117 58.6237 48.5317 59.0257 48.2677 59.3737C48.0157 59.7097 47.6557 59.9797 47.1877 60.1837L49.2037 67.2937H46.1617L44.4877 60.6877H43.4437V67.2937H40.4737ZM43.4437 58.9237H44.3077C44.7877 58.9237 45.1657 58.8457 45.4417 58.6897C45.7177 58.5337 45.9097 58.2997 46.0177 57.9877C46.1377 57.6637 46.1977 57.2677 46.1977 56.7997C46.1977 56.1277 46.0717 55.6177 45.8197 55.2697C45.5797 54.9097 45.1237 54.7297 44.4517 54.7297H43.4437V58.9237ZM59.5551 67.2937V52.7137H62.5251V58.8697L65.1531 52.7137H68.0331L65.2971 59.2657L68.2311 67.2937H65.2431L62.9931 60.7597L62.5251 61.5877V67.2937H59.5551ZM77.8982 67.2937V52.7137H84.2522V54.7657H80.8682V58.6357H83.4782V60.7057H80.8682V65.2777H84.2882V67.2937H77.8982ZM95.7988 67.2937V54.9277H93.5488V52.7137H101.001V54.9277H98.7868V67.2937H95.7988ZM110.963 67.2937V52.7137H115.589C116.465 52.7137 117.179 52.8817 117.731 53.2177C118.283 53.5417 118.691 54.0157 118.955 54.6397C119.231 55.2637 119.369 56.0197 119.369 56.9077C119.369 57.9517 119.189 58.7677 118.829 59.3557C118.481 59.9437 118.001 60.3637 117.389 60.6157C116.777 60.8557 116.075 60.9757 115.283 60.9757H113.933V67.2937H110.963ZM113.933 58.8877H114.977C115.409 58.8877 115.739 58.8217 115.967 58.6897C116.207 58.5457 116.369 58.3237 116.453 58.0237C116.537 57.7237 116.579 57.3397 116.579 56.8717C116.579 56.4277 116.543 56.0557 116.471 55.7557C116.411 55.4557 116.267 55.2217 116.039 55.0537C115.811 54.8857 115.451 54.8017 114.959 54.8017H113.933V58.8877ZM129.43 67.2937V52.7137H132.4V65.2777H135.82V67.2937H129.43ZM145.137 67.2937L147.963 52.7137H151.257L154.065 67.2937H151.311L150.789 64.0897H148.485L147.927 67.2937H145.137ZM148.755 62.2717H150.501L149.619 56.3857L148.755 62.2717ZM168.039 67.4917C166.959 67.4917 166.101 67.2877 165.465 66.8797C164.841 66.4717 164.403 65.9077 164.151 65.1877C163.899 64.4557 163.773 63.6097 163.773 62.6497V57.4117C163.773 56.4037 163.899 55.5397 164.151 54.8197C164.403 54.0877 164.841 53.5237 165.465 53.1277C166.101 52.7317 166.959 52.5337 168.039 52.5337C169.083 52.5337 169.899 52.7077 170.487 53.0557C171.087 53.4037 171.507 53.8957 171.747 54.5317C171.999 55.1677 172.125 55.9057 172.125 56.7457V57.9697H169.245V56.6017C169.245 56.2657 169.227 55.9537 169.191 55.6657C169.155 55.3657 169.053 55.1257 168.885 54.9457C168.729 54.7537 168.453 54.6577 168.057 54.6577C167.661 54.6577 167.373 54.7537 167.193 54.9457C167.013 55.1377 166.899 55.3897 166.851 55.7017C166.803 56.0017 166.779 56.3377 166.779 56.7097V63.3337C166.779 63.7417 166.809 64.1017 166.869 64.4137C166.941 64.7137 167.067 64.9477 167.247 65.1157C167.439 65.2717 167.709 65.3497 168.057 65.3497C168.441 65.3497 168.711 65.2597 168.867 65.0797C169.035 64.8877 169.137 64.6357 169.173 64.3237C169.221 64.0117 169.245 63.6817 169.245 63.3337V61.9117H172.125V63.1177C172.125 63.9697 172.005 64.7257 171.765 65.3857C171.525 66.0337 171.111 66.5497 170.523 66.9337C169.935 67.3057 169.107 67.4917 168.039 67.4917ZM182.578 67.2937V52.7137H188.932V54.7657H185.548V58.6357H188.158V60.7057H185.548V65.2777H188.968V67.2937H182.578Z" fill="#F1E5FF"/>
<defs>
<linearGradient id="paint0_linear_281_7630" x1="186.735" y1="6.0633" x2="-17.7563" y2="41.0376" gradientUnits="userSpaceOnUse">
<stop stop-color="#DB29C1"/>
<stop offset="1" stop-color="#2F0BF3"/>
</linearGradient>
<linearGradient id="paint1_linear_281_7630" x1="89.6121" y1="4.31925" x2="98.8719" y2="32.9991" gradientUnits="userSpaceOnUse">
<stop stop-color="#9513E0"/>
<stop offset="1" stop-color="#DC29AD"/>
</linearGradient>
<linearGradient id="paint2_linear_281_7630" x1="92.3369" y1="34.2995" x2="79.4432" y2="10.0313" gradientUnits="userSpaceOnUse">
<stop stop-color="#7A0BF3"/>
<stop offset="1" stop-color="#DC29AD"/>
</linearGradient>
<clipPath id="clip0_281_7630">
<rect width="40.422" height="39.8004" fill="white" transform="translate(69.9878 40.422) rotate(-90)"/>
</clipPath>
</defs>
</svg>
