<svg width="192" height="80" viewBox="0 0 192 80" fill="none" xmlns="http://www.w3.org/2000/svg">
<path fill-rule="evenodd" clip-rule="evenodd" d="M132.996 0.666016C142.099 0.666016 148.96 5.79079 151.071 14.1768H140.846C139.263 10.9156 136.36 9.25168 132.864 9.25168C127.125 9.25168 123.233 13.5112 123.233 20.3665C123.233 27.2217 127.125 31.4812 132.864 31.4812C136.426 31.4812 139.263 29.8173 140.846 26.5561H151.071C148.894 34.8756 142.033 40.0003 132.996 40.0003C121.716 40.0003 113.8 31.9471 113.8 20.433C113.8 8.9189 121.782 0.666016 132.996 0.666016ZM10.3011 8.65163H24.3516V1.13086H1V39.6665H24.3516V32.1457H10.3011V23.6932H22.7685V16.4386H10.3011V8.65163ZM64.5902 39.6665V1.13086H55.2891V25.0243L39.7214 1.13086H30.4203V39.6H39.7214V15.8396L55.2891 39.6665H64.5902ZM166.111 23.7597H180.557V39.6665H189.858V1.13086H180.557V16.239H166.111V1.13086H156.81V39.6H166.111V23.7597Z" fill="url(#paint0_linear_210_7753)"/>
<g clip-path="url(#clip0_210_7753)">
<path d="M75.9868 5.26947C77.9719 4.59159 80.0486 4.25265 82.2474 4.25265C89.3631 4.25264 95.532 8.19668 99.0135 13.897C99.044 13.9587 99.1051 14.0203 99.1357 14.0819C99.1357 14.1127 99.1662 14.1127 99.1662 14.1435C100.174 15.8382 100.724 17.8411 100.724 19.9671C100.724 26.2838 95.6542 31.4295 89.3631 31.4295C85.4846 31.4295 82.0336 29.4267 79.9875 26.3762C83.1941 31.7068 89.6684 35.6816 96.5398 35.6816C98.7386 35.6816 100.846 35.3119 102.8 34.634C106.74 30.9981 109.183 25.7599 109.183 19.9671C109.183 8.93618 100.327 0.000483393 89.3936 0.000483875C84.2324 0.000484103 79.5294 2.00332 75.9868 5.26947Z" fill="url(#paint1_linear_210_7753)"/>
<path d="M79.9874 26.376C78.7658 24.558 78.0329 22.3395 78.0329 19.9669C78.0329 13.6503 83.1024 8.50459 89.3935 8.50459C93.4552 8.50459 97.0283 10.6615 99.0134 13.8968C95.5319 8.19646 89.363 4.25243 82.2473 4.25243C80.0485 4.25243 77.9412 4.62218 75.9867 5.26925C72.0777 8.93597 69.604 14.1433 69.604 19.9669C69.604 30.9979 78.4604 39.9336 89.3935 39.9336C94.5547 39.9336 99.2883 37.9308 102.8 34.6338C100.815 35.3117 98.708 35.6814 96.5397 35.6814C89.6684 35.6814 83.194 31.7066 79.9874 26.376Z" fill="url(#paint2_linear_210_7753)"/>
<ellipse cx="89.1978" cy="19.9994" rx="5.75202" ry="5.71427" fill="white"/>
</g>
<path d="M1.276 71L1.584 53.1801H5.43398L7.63398 64.422L9.98797 53.1801H13.706L14.014 71H11.374L11.088 58.922L8.82197 71H6.55598L4.17999 58.834L3.93799 71H1.276ZM22.3588 71L25.8128 53.1801H29.8388L33.2708 71H29.9048L29.2668 67.084H26.4508L25.7688 71H22.3588ZM26.7808 64.862H28.9148L27.8368 57.668L26.7808 64.862ZM41.5477 71V53.1801H46.1677C47.3704 53.1801 48.397 53.3194 49.2477 53.5981C50.113 53.8621 50.773 54.3387 51.2277 55.0281C51.697 55.7174 51.9317 56.6707 51.9317 57.888C51.9317 58.6214 51.8657 59.274 51.7337 59.846C51.6164 60.4034 51.3964 60.8947 51.0737 61.32C50.7657 61.7307 50.3257 62.0607 49.7537 62.31L52.2177 71H48.4997L46.4537 62.926H45.1777V71H41.5477ZM45.1777 60.77H46.2337C46.8204 60.77 47.2824 60.6747 47.6197 60.484C47.957 60.2934 48.1917 60.0074 48.3237 59.626C48.4704 59.23 48.5437 58.746 48.5437 58.174C48.5437 57.3527 48.3897 56.7294 48.0817 56.304C47.7884 55.864 47.231 55.644 46.4097 55.644H45.1777V60.77ZM60.9094 71V53.1801H64.5394V60.704L67.7514 53.1801H71.2713L67.9274 61.188L71.5133 71H67.8614L65.1114 63.014L64.5394 64.026V71H60.9094ZM79.3687 71V53.1801H87.1347V55.688H82.9987V60.418H86.1887V62.948H82.9987V68.536H87.1787V71H79.3687ZM97.2871 71V55.886H94.5371V53.1801H103.645V55.886H100.939V71H97.2871ZM111.862 71V53.1801H117.516C118.586 53.1801 119.459 53.3854 120.134 53.7961C120.808 54.1921 121.307 54.7714 121.63 55.534C121.967 56.2967 122.136 57.2207 122.136 58.306C122.136 59.582 121.916 60.5794 121.476 61.298C121.05 62.0167 120.464 62.53 119.716 62.838C118.968 63.1314 118.11 63.278 117.142 63.278H115.492V71H111.862ZM115.492 60.726H116.768C117.296 60.726 117.699 60.6454 117.978 60.484C118.271 60.308 118.469 60.0367 118.572 59.67C118.674 59.3034 118.726 58.834 118.726 58.262C118.726 57.7194 118.682 57.2647 118.594 56.898C118.52 56.5314 118.344 56.2454 118.066 56.04C117.787 55.8347 117.347 55.732 116.746 55.732H115.492V60.726ZM130.471 71V53.1801H134.101V68.536H138.281V71H130.471ZM145.709 71L149.163 53.1801H153.189L156.621 71H153.255L152.617 67.084H149.801L149.119 71H145.709ZM150.131 64.862H152.265L151.187 57.668L150.131 64.862ZM169.74 71.242C168.42 71.242 167.372 70.9927 166.594 70.494C165.832 69.9953 165.296 69.306 164.988 68.426C164.68 67.5313 164.526 66.4973 164.526 65.324V58.922C164.526 57.69 164.68 56.634 164.988 55.754C165.296 54.8594 165.832 54.1701 166.594 53.6861C167.372 53.2021 168.42 52.9601 169.74 52.9601C171.016 52.9601 172.014 53.1727 172.732 53.5981C173.466 54.0234 173.979 54.6247 174.272 55.402C174.58 56.1794 174.734 57.0814 174.734 58.108V59.604H171.214V57.932C171.214 57.5214 171.192 57.14 171.148 56.788C171.104 56.4214 170.98 56.128 170.774 55.908C170.584 55.6734 170.246 55.556 169.762 55.556C169.278 55.556 168.926 55.6734 168.706 55.908C168.486 56.1427 168.347 56.4507 168.288 56.832C168.23 57.1987 168.2 57.6094 168.2 58.064V66.16C168.2 66.6587 168.237 67.0987 168.31 67.48C168.398 67.8467 168.552 68.1327 168.772 68.338C169.007 68.5287 169.337 68.624 169.762 68.624C170.232 68.624 170.562 68.514 170.752 68.294C170.958 68.0593 171.082 67.7513 171.126 67.37C171.185 66.9887 171.214 66.5853 171.214 66.16V64.422H174.734V65.896C174.734 66.9373 174.588 67.8613 174.294 68.668C174.001 69.46 173.495 70.0907 172.776 70.56C172.058 71.0147 171.046 71.242 169.74 71.242ZM183.55 71V53.1801H191.316V55.688H187.18V60.418H190.37V62.948H187.18V68.536H191.36V71H183.55Z" fill="#B9B9DA"/>
<defs>
<linearGradient id="paint0_linear_210_7753" x1="185.702" y1="5.99045" x2="-17.5754" y2="40.9867" gradientUnits="userSpaceOnUse">
<stop stop-color="white"/>
<stop offset="1" stop-color="white"/>
</linearGradient>
<linearGradient id="paint1_linear_210_7753" x1="89.1192" y1="4.26753" x2="98.2182" y2="32.6357" gradientUnits="userSpaceOnUse">
<stop stop-color="white"/>
<stop offset="1" stop-color="#CDDDE1"/>
</linearGradient>
<linearGradient id="paint2_linear_210_7753" x1="91.8287" y1="33.8851" x2="79.138" y2="9.84111" gradientUnits="userSpaceOnUse">
<stop stop-color="white"/>
<stop offset="1" stop-color="#CDDDE1"/>
</linearGradient>
<clipPath id="clip0_210_7753">
<rect width="39.9333" height="39.579" fill="white" transform="translate(69.604 39.9336) rotate(-90)"/>
</clipPath>
</defs>
</svg>
