<svg width="24" height="24" viewBox="0 0 24 24" fill="none" xmlns="http://www.w3.org/2000/svg">
<g clip-path="url(#clip0_253_6804)">
<path d="M10.5691 0C4.74145 0 0 4.74145 0 10.5691C0 16.3971 4.74145 21.1382 10.5691 21.1382C16.3971 21.1382 21.1382 16.3971 21.1382 10.5691C21.1382 4.74145 16.3971 0 10.5691 0ZM10.5691 19.187C5.81723 19.187 1.95122 15.321 1.95122 10.5691C1.95122 5.81728 5.81723 1.95122 10.5691 1.95122C15.321 1.95122 19.187 5.81723 19.187 10.5691C19.187 15.321 15.321 19.187 10.5691 19.187Z" fill="#A1A1A1"/>
<path d="M23.714 22.3346L18.1205 16.7411C17.7393 16.36 17.1221 16.36 16.7409 16.7411C16.3598 17.1219 16.3598 17.7398 16.7409 18.1206L22.3344 23.7142C22.525 23.9047 22.7745 24 23.0242 24C23.2736 24 23.5234 23.9047 23.714 23.7142C24.0951 23.3333 24.0951 22.7154 23.714 22.3346Z" fill="#A1A1A1"/>
</g>
<defs>
<clipPath id="clip0_253_6804">
<rect width="24" height="24" fill="white"/>
</clipPath>
</defs>
</svg>
