<svg width="15" height="17" viewBox="0 0 15 17" fill="none" xmlns="http://www.w3.org/2000/svg">
<path d="M0.290383 2.168C0.37705 1.92533 0.498383 1.68267 0.654383 1.44C0.810383 1.19733 1.00105 0.980666 1.22638 0.789999C1.46905 0.582 1.74638 0.417333 2.05838 0.295999C2.37038 0.157332 2.71705 0.0879987 3.09838 0.0879987C3.60105 0.0879987 4.04305 0.217999 4.42438 0.478C4.80572 0.720667 5.19572 1.14533 5.59438 1.752L7.62238 4.846L10.6124 0.425999C10.7511 0.356666 10.9417 0.295999 11.1844 0.244C11.4444 0.174666 11.6957 0.14 11.9384 0.14C12.7357 0.14 13.3597 0.330666 13.8104 0.712C14.261 1.09333 14.4864 1.56133 14.4864 2.116C14.4864 2.60133 14.3564 3.03467 14.0964 3.416C13.8537 3.79733 13.5157 4.25667 13.0824 4.794L10.4044 8.07L14.6424 14.128C14.5037 14.7693 14.2004 15.2807 13.7324 15.662C13.2817 16.026 12.6664 16.208 11.8864 16.208C11.3837 16.208 10.9504 16.0867 10.5864 15.844C10.2224 15.584 9.84972 15.1507 9.46838 14.544L7.36238 11.216L4.08638 16.156C3.94772 16.1733 3.81772 16.182 3.69638 16.182C3.57505 16.1993 3.45372 16.208 3.33238 16.208C2.34438 16.208 1.61638 16.0087 1.14838 15.61C0.680383 15.2113 0.446383 14.7173 0.446383 14.128C0.446383 13.6253 0.550383 13.192 0.758383 12.828C0.983716 12.4467 1.29572 12.0047 1.69438 11.502L4.42438 7.992L0.290383 2.168Z" fill="#DB29C1"/>
</svg>
