<svg width="25" height="25" viewBox="0 0 25 25" fill="none" xmlns="http://www.w3.org/2000/svg">
<g clip-path="url(#clip0_210_7721)">
<path d="M18.4083 3.2228C18.4427 4.55502 19.3735 5.87816 21.1305 5.87816C22.774 5.87816 23.8588 4.6509 23.8588 3.1471C23.8588 1.78965 22.921 0.415039 21.1295 0.415039C20.1582 0.415039 19.268 0.847002 18.7621 1.74827L14.4055 0.447335C13.9858 0.323197 13.5589 0.571474 13.4515 0.979215L11.5018 8.3569C9.23478 8.51838 7.16446 9.14109 5.46826 10.0817C2.65985 7.46269 -1.17966 11.7298 1.32053 14.686C-0.478067 20.2793 5.97824 24.6372 12.6992 24.6372C19.4728 24.6372 25.8531 20.2066 24.0778 14.686C26.5699 11.7399 22.7588 7.46572 19.926 10.0797C18.0301 9.03007 15.6617 8.38616 13.0824 8.32763L14.7218 2.1227L18.4083 3.2228ZM21.1295 1.92893C22.0207 1.92893 22.337 2.58495 22.337 3.14811C22.337 3.82129 21.9223 4.36528 21.1295 4.36528C20.2373 4.36528 19.922 3.70926 19.922 3.14609C19.922 2.46585 20.3397 1.92893 21.1295 1.92893ZM4.11272 10.9668C3.30873 11.5795 2.63755 12.2758 2.12859 13.0378C1.74332 11.6128 2.97922 10.3815 4.11272 10.9668ZM12.6992 23.1234C3.63215 23.1234 -0.8826 15.8749 5.62034 11.7208C6.0482 11.525 8.32129 9.82739 12.6992 9.82739C16.5073 9.82739 18.2491 11.0223 19.776 11.7197C26.2546 15.8567 21.8219 23.1234 12.6992 23.1234ZM23.2697 13.0388C22.7608 12.2758 22.0896 11.5795 21.2846 10.9668C22.4414 10.3724 23.652 11.6269 23.2697 13.0388Z" fill="white"/>
<path d="M10.9804 15.4881C10.9804 14.1549 9.96859 13.2617 8.73268 13.2617C7.64176 13.2617 6.48291 14.0419 6.48291 15.4881C6.48291 16.8204 7.49272 17.7146 8.73065 17.7146C9.82158 17.7146 10.9804 16.9344 10.9804 15.4881ZM8.00371 15.4881C8.00371 14.8271 8.56134 14.7756 8.73268 14.7756C9.14127 14.7756 9.45962 15.0067 9.45962 15.4881C9.45962 16.1492 8.902 16.2007 8.73065 16.2007C8.56032 16.2007 8.00371 16.1492 8.00371 15.4881Z" fill="white"/>
<path d="M16.6673 13.2617C15.5763 13.2617 14.4175 14.0419 14.4175 15.4881C14.4175 16.8204 15.4273 17.7146 16.6652 17.7146C17.7561 17.7146 18.915 16.9344 18.915 15.4881C18.915 14.1549 17.9032 13.2617 16.6673 13.2617ZM16.6652 16.2007C16.4949 16.2007 15.9383 16.1492 15.9383 15.4881C15.9383 14.8271 16.4959 14.7756 16.6673 14.7756C17.0758 14.7756 17.3942 15.0067 17.3942 15.4881C17.3942 16.1492 16.8366 16.2007 16.6652 16.2007Z" fill="white"/>
<path d="M16.0419 19.0054C14.9206 20.5365 10.5123 20.5556 9.35752 19.0064C8.78975 18.1869 7.54675 19.0296 8.09931 19.8562C9.71237 22.2805 15.6861 22.2815 17.2991 19.8562C17.8426 19.0458 16.6229 18.201 16.0419 19.0054Z" fill="white"/>
</g>
<defs>
<clipPath id="clip0_210_7721">
<rect width="24.3328" height="24.2222" fill="white" transform="translate(0.532715 0.415039)"/>
</clipPath>
</defs>
</svg>
