<svg width="253" height="184" viewBox="0 0 253 184" fill="none" xmlns="http://www.w3.org/2000/svg">
<path d="M98.0965 127.891L89.1944 115.625L87.8576 113.796L80.2766 103.362C64.4536 104.202 49.3799 109.329 40.4836 118.922C43.4551 118.913 47.5442 119.965 47.2859 121.164C31.5067 134.044 35.3279 151.722 19.5239 160.424C19.5239 160.424 43.0598 164.207 63.9243 156.803C66.2516 155.981 65.2354 159.376 63.7221 164.99C75.4538 159.465 92.4541 142.561 98.0965 127.891Z" fill="#FF9A00"/>
<path d="M95.418 124.201L89.1764 115.612L88.6179 114.833L82.9347 107.023C50.6543 108.755 41.2505 150.47 41.2505 150.47C41.2505 150.47 83.8041 154.399 95.418 124.201Z" fill="#FFE51B"/>
<path d="M93.2771 121.262L89.1764 115.612L85.0757 109.962C63.8686 111.099 57.689 138.498 57.689 138.498C57.689 138.498 85.6444 141.076 93.2746 121.247L93.2771 121.262Z" fill="#FFF0E6"/>
<path opacity="0.14" d="M98.0964 127.891L95.4178 124.201L93.2744 121.246L89.1943 115.625C82.4936 111.806 45.7365 156.621 19.5213 160.408C19.5213 160.408 43.0572 164.191 63.9218 156.788C66.249 155.965 65.2328 159.361 63.7195 164.975C75.4512 159.449 92.4515 142.546 98.0939 127.875L98.0964 127.891Z" fill="black"/>
<path d="M106.286 74.8538C101.212 70.8553 73.1449 51.3901 42.3516 81.8373C41.5061 82.6801 42.2964 83.905 43.4898 83.7303C56.3432 81.8051 73.5601 83.252 88.8347 94.4671C89.3461 94.8519 90.0801 94.7185 90.4436 94.1779L106.531 76.3909C106.871 75.9023 106.763 75.2279 106.288 74.8695L106.286 74.8538Z" fill="#F42929"/>
<path opacity="0.13" d="M105.704 75.735C100.63 71.7365 69.4556 58.6709 42.3832 81.8323C41.4781 82.6042 42.2834 83.9231 43.5213 83.7253C56.1034 81.8113 73.5916 83.247 88.8662 94.4621C89.3777 94.8469 90.1116 94.7135 90.4752 94.1729L105.947 77.2564C106.287 76.7678 106.179 76.0934 105.704 75.735Z" fill="black"/>
<path d="M132.781 112.746C134.942 118.625 144.502 150.393 107.194 169.737C106.17 170.271 105.27 169.16 105.778 168.114C111.183 156.988 115.23 140.482 109.464 123.002C109.272 122.406 109.621 121.771 110.219 121.595L131.45 112.058C132.004 111.905 132.597 112.196 132.795 112.728L132.781 112.746Z" fill="#F42929"/>
<path opacity="0.24" d="M132.781 112.746C134.942 118.625 144.502 150.393 107.194 169.737C106.17 170.271 105.27 169.16 105.778 168.114C111.183 156.988 115.23 140.482 109.464 123.002C109.272 122.406 109.621 121.771 110.219 121.595L131.45 112.058C132.004 111.905 132.597 112.196 132.795 112.728L132.781 112.746Z" fill="black"/>
<path opacity="0.24" d="M123.005 116.528C125.166 122.407 127.913 151.162 107.179 169.74C106.323 170.52 105.254 169.163 105.762 168.117C111.167 156.991 115.215 140.484 109.449 123.005C109.257 122.408 109.606 121.773 110.204 121.597L121.658 115.842C122.212 115.689 122.789 115.983 123.003 116.512L123.005 116.528Z" fill="black"/>
<path opacity="0.13" d="M95.7334 86.7539C89.9623 82.0143 62.2561 71.2416 42.5466 81.9509C41.6414 82.7229 42.2675 83.9257 43.5054 83.7279C56.0875 81.8138 73.5757 83.2495 88.8504 94.4647C89.3618 94.8494 90.0957 94.716 90.4593 94.1754L95.9633 88.2935C96.3031 87.8049 96.1953 87.1305 95.7202 86.7721L95.7334 86.7539Z" fill="black"/>
<path opacity="0.08" d="M132.781 112.746C133.243 114.023 134.056 116.499 134.666 119.812C128.856 128.509 112.208 143.088 112.08 135.854C111.735 131.679 110.902 127.373 109.464 123.002C109.272 122.406 109.621 121.771 110.22 121.595L131.45 112.058C132.004 111.905 132.597 112.196 132.795 112.728L132.781 112.746Z" fill="black"/>
<path d="M230.797 12.6223C158.147 -16.0287 102.401 71.7591 82.3464 98.1097L93.0404 112.839L103.734 127.569C134.974 116.61 235.596 90.6226 230.815 12.6355L230.797 12.6223Z" fill="white"/>
<path d="M102.702 126.142L93.0376 112.824L92.5463 112.162L83.3753 99.5216L78.361 100.725L89.1947 115.625L100.015 130.544L102.702 126.142Z" fill="#F42929"/>
<path d="M217.25 22.4756C220.957 27.5772 225.056 31.9085 229.102 35.2027C230.666 28.1972 231.313 20.6788 230.81 12.6042C223.282 9.64117 215.952 7.91723 208.808 7.25732C210.696 12.1349 213.539 17.3584 217.247 22.46L217.25 22.4756Z" fill="#F42929"/>
<path opacity="0.27" d="M102.703 126.142L93.0378 112.824L92.5465 112.162L89.1949 115.625L100.015 130.544L102.703 126.142Z" fill="black"/>
<path d="M204.022 6.9765C202.661 6.90451 200.999 6.96103 199.637 6.98566C202.1 13.3477 206.034 20.8739 210.673 27.2744C215.311 33.6748 221.272 39.703 226.556 44.0059C226.979 42.7319 227.419 41.5677 227.788 40.2542C223.176 36.2301 217.862 30.6293 213.797 25.0057C209.72 19.4003 206.417 12.6095 204.025 6.99218L204.022 6.9765Z" fill="#F42929"/>
<path opacity="0.27" d="M230.796 12.6223C220.52 86.083 99.6332 121.919 99.6332 121.919L103.731 127.554C134.971 116.594 235.593 90.6069 230.812 12.6198L230.796 12.6223Z" fill="black"/>
<path opacity="0.04" d="M86.3898 103.704L89.8312 108.446C89.8312 108.446 177.662 22.6251 230.797 12.6223C155.623 -1.45462 88.2044 101.082 86.3898 103.704Z" fill="black"/>
<path opacity="0.21" d="M222.113 24.7545C221.287 25.7229 220.444 26.678 219.571 27.6538C218.943 28.3493 218.313 29.0291 217.653 29.7297C216.185 31.2994 214.651 32.8634 213.039 34.44C212.734 34.746 212.429 35.0521 212.109 35.3606C211.526 35.9363 210.912 36.517 210.298 37.0977C209.712 37.6577 209.095 38.2227 208.497 38.8009C208.342 38.9382 208.19 39.0913 208.035 39.2286C177.501 67.4789 129.414 97.5049 107.656 110.584C107.525 110.669 107.392 110.739 107.245 110.827C106.834 111.07 106.423 111.312 106.012 111.555C105.747 111.71 105.498 111.862 105.234 112.017C104.721 112.324 104.236 112.611 103.767 112.895C103.298 113.179 102.843 113.444 102.416 113.69C102.211 113.819 101.989 113.935 101.8 114.061C101.523 114.234 101.242 114.392 100.978 114.547C100.787 114.658 100.596 114.769 100.42 114.877C99.5244 115.406 98.7441 115.853 98.1129 116.227C97.9217 116.338 97.7437 116.431 97.5995 116.534C96.9815 116.89 96.5415 117.154 96.277 117.308L103.775 127.627C134.997 116.654 235.564 90.6276 230.832 12.7453C228.636 16.6027 225.68 20.6298 222.131 24.7677L222.113 24.7545Z" fill="black"/>
<path opacity="0.11" d="M98.1106 116.211C98.7418 115.837 99.5222 115.391 100.418 114.861C100.593 114.753 100.785 114.642 100.976 114.531C101.24 114.376 101.52 114.219 101.798 114.046C102.002 113.917 102.209 113.803 102.414 113.674C102.84 113.429 103.296 113.163 103.765 112.879C104.234 112.595 104.718 112.308 105.232 112.001C105.481 111.849 105.745 111.694 106.01 111.539C106.405 111.299 106.816 111.056 107.243 110.811C107.374 110.726 107.508 110.656 107.654 110.569C129.427 97.4867 177.515 67.4608 208.033 39.2129C208.187 39.0756 208.342 38.9382 208.495 38.7852C209.096 38.2227 209.71 37.642 210.295 37.082C210.91 36.5013 211.508 35.9231 212.107 35.3449C212.412 35.0389 212.732 34.7303 213.036 34.4243C214.649 32.8477 216.18 31.268 217.651 29.714C218.31 29.0135 218.941 28.3336 219.569 27.6381C220.442 26.6623 221.301 25.7047 222.111 24.7388C225.642 20.5877 228.595 16.5449 230.809 12.7008C230.804 12.6694 230.802 12.6537 230.797 12.6223C178.583 22.5583 93.1553 105.213 89.847 108.444L93.0377 112.824L96.2722 117.277C96.5367 117.122 96.9768 116.859 97.5948 116.503C97.7571 116.413 97.9326 116.304 98.1081 116.196L98.1106 116.211Z" fill="black"/>
<path opacity="0.1" d="M126.304 46.0642C122.281 79.2144 164.885 73.4036 170.572 34.374L145.437 34.9644L126.32 46.0617L126.304 46.0642Z" fill="black"/>
<path d="M164.734 45.408C156.149 55.2404 141.971 59.8383 133.092 55.6597C124.2 51.4993 123.961 40.1494 132.546 30.317C141.13 20.4846 155.308 15.8867 164.188 20.0653C173.08 24.2257 173.319 35.5756 164.734 45.408Z" fill="#737373"/>
<path d="M163.908 44.8645C155.616 54.3124 141.755 58.5861 132.941 54.4131C124.127 50.2402 123.714 39.2077 132.007 29.7598C140.3 20.3118 154.16 16.0381 162.974 20.2111C171.788 24.384 172.201 35.4165 163.908 44.8645Z" fill="#2E2E2E"/>
<path d="M163.87 43.1173C163.531 43.5093 162.93 43.6697 162.53 43.4763C162.145 43.2805 162.104 42.8206 162.443 42.4286C162.782 42.0367 163.383 41.8763 163.783 42.0696C164.184 42.263 164.209 42.7253 163.87 43.1173Z" fill="#C7C7C7"/>
<path d="M132.612 50.5411C132.997 50.737 133.038 51.1968 132.699 51.5888C132.36 51.9808 131.759 52.1412 131.358 51.9478C130.973 51.752 130.932 51.2921 131.271 50.9001C131.61 50.5082 132.211 50.3478 132.612 50.5411Z" fill="#C7C7C7"/>
<path d="M160.64 19.6833C161.025 19.8792 161.066 20.3391 160.727 20.731C160.388 21.123 159.787 21.2834 159.386 21.09C159.001 20.8942 158.96 20.4343 159.299 20.0423C159.638 19.6504 160.239 19.49 160.64 19.6833Z" fill="#C7C7C7"/>
<path d="M128.166 41.7293C128.2 42.1421 127.804 42.5754 127.281 42.7233C126.758 42.8712 126.321 42.6514 126.287 42.2386C126.254 41.8258 126.65 41.3925 127.173 41.2446C127.696 41.0967 128.148 41.314 128.166 41.7293Z" fill="#C7C7C7"/>
<path d="M169.002 28.6734C169.036 29.0862 168.639 29.5196 168.117 29.6674C167.594 29.8153 167.141 29.5981 167.123 29.1828C167.089 28.77 167.486 28.3366 168.009 28.1888C168.532 28.0409 168.984 28.2581 169.002 28.6734Z" fill="#C7C7C7"/>
<path d="M148.114 51.313C148.637 51.1652 149.089 51.3824 149.107 51.7977C149.141 52.2105 148.744 52.6438 148.222 52.7917C147.699 52.9396 147.246 52.7224 147.228 52.3071C147.194 51.8943 147.591 51.4609 148.114 51.313Z" fill="#C7C7C7"/>
<path d="M153.57 48.1075C163.865 42.7721 169.119 32.4729 165.306 25.1037C161.492 17.7345 150.054 16.0858 139.759 21.4212C129.464 26.7566 124.209 37.0557 128.023 44.4249C131.837 51.7942 143.275 53.4429 153.57 48.1075Z" fill="#26A2E8"/>
<path opacity="0.14" d="M133.231 30.481C140.521 22.3031 153.074 18.8978 161.297 22.8918C163.318 23.8717 164.898 25.2116 166.004 26.8042C165.094 23.9257 163.036 21.5041 159.848 19.9547C151.627 15.9764 139.056 19.3685 131.781 27.544C126.291 33.7132 125.371 40.825 128.762 45.6554C127.33 41.123 128.76 35.49 133.231 30.481Z" fill="black"/>
<path opacity="0.36" d="M143.386 21.8292C140.352 23.1505 138.238 25.2093 138.687 26.4083C139.12 27.6098 141.948 27.5117 144.981 26.1746C148.016 24.8533 150.129 22.7944 149.681 21.5954C149.248 20.3939 146.419 20.4921 143.386 21.8292Z" fill="white"/>
<path opacity="0.36" d="M132.029 30.7052C130.978 31.8704 130.847 33.162 131.703 33.5883C132.574 34.0121 134.115 33.3959 135.15 32.2332C136.186 31.0705 136.332 29.7763 135.477 29.3501C134.606 28.9263 133.065 29.5425 132.014 30.7077L132.029 30.7052Z" fill="white"/>
<path opacity="0.08" d="M111.773 106.677C107.267 109.955 101.743 113.701 96.1994 117.224L103.7 127.559C108.067 126.024 113.787 124.21 120.373 121.983L123.908 95.3286C123.145 97.4933 120.035 100.66 111.773 106.677Z" fill="black"/>
<path d="M111.789 106.675C97.1195 117.351 71.7925 132.931 69.587 129.889C67.3816 126.848 89.6401 107.753 104.312 97.0928C118.983 86.4326 120.505 88.216 122.724 91.2392C124.93 94.2807 126.473 95.9964 111.804 106.672L111.789 106.675Z" fill="#F42929"/>
<path opacity="0.14" d="M111.789 106.675C97.1195 117.351 71.7925 132.931 69.587 129.889C80.0526 123.681 118.351 98.1629 122.708 91.2418C124.914 94.2832 126.458 95.9989 111.789 106.675Z" fill="black"/>
</svg>
