<svg width="27" height="26" viewBox="0 0 27 26" fill="none" xmlns="http://www.w3.org/2000/svg">
<path d="M0.994633 25.9391C0.994633 25.7944 0.994633 25.6835 0.994633 25.5732C0.993529 21.3681 1.01727 17.1635 0.985248 12.9589C0.943293 7.47529 4.33395 2.81585 9.05834 0.97054C13.3764 -0.717149 17.4936 -0.220075 21.2353 2.58955C24.1352 4.767 25.8399 7.741 26.2783 11.3984C27.0196 17.5778 23.4049 23.3479 17.6128 25.3109C16.3641 25.7342 15.0745 25.929 13.7601 25.9307C9.58223 25.9369 5.40491 25.9369 1.22704 25.9391C1.16356 25.9391 1.10007 25.9391 0.994633 25.9391ZM6.01603 20.8321C6.13527 20.8091 6.20648 20.7984 6.27604 20.7809C7.64897 20.4353 9.02135 20.0857 10.3959 19.7474C10.5179 19.7175 10.672 19.7248 10.7862 19.7744C12.025 20.3159 13.3107 20.4932 14.6445 20.3176C18.6887 19.7851 21.5268 15.8935 20.8572 11.8009C20.1848 7.69203 16.4022 4.97528 12.3783 5.71104C7.7108 6.56446 5.07976 11.797 7.13668 16.1536C7.26309 16.4215 7.27745 16.6416 7.19022 16.9208C6.7911 18.2055 6.41405 19.498 6.01603 20.8321Z" fill="white"/>
</svg>
