<svg width="22" height="24" viewBox="0 0 22 24" fill="none" xmlns="http://www.w3.org/2000/svg">
<path d="M8.93244 9.55627V8.6162C8.61222 8.53809 8.292 8.53809 7.97246 8.53809C3.88705 8.53809 0.602539 11.7495 0.602539 15.7448C0.602539 18.1731 1.8848 20.3664 3.72728 21.6203L3.64705 21.5415C2.44228 20.2883 1.8032 18.565 1.8032 16.761C1.8032 12.7684 5.00749 9.63506 8.93244 9.55627Z" fill="white"/>
<path d="M8.99597 20.1074C10.7959 20.1074 12.2044 18.6829 12.2825 16.8616V1.02777H15.0994C15.0212 0.710534 15.0212 0.39398 15.0212 0H11.1093V15.8346C11.0304 17.5763 9.62201 19.0015 7.82273 19.0015C7.30075 19.0024 6.78774 18.8658 6.33545 18.6054C6.96149 19.4742 7.9009 20.1074 8.99597 20.1074ZM20.5096 6.37699V5.41773C19.4364 5.42092 18.3849 5.11603 17.4802 4.53933C18.2769 5.41773 19.3137 6.13717 20.5096 6.37699Z" fill="white"/>
<path d="M17.4804 4.54012C16.6356 3.55277 16.1776 2.23654 16.1776 0.755859H15.0996C15.3746 2.27709 16.2277 3.63312 17.4804 4.54012ZM7.83189 12.4101C6.06484 12.4101 4.60498 13.8977 4.60498 15.699C4.60498 16.9515 5.37297 18.0478 6.37203 18.5953C5.97461 18.049 5.75876 17.3919 5.7549 16.7165C5.7549 14.9158 7.21476 13.4276 8.98181 13.4276C9.28901 13.4276 9.59895 13.5057 9.9034 13.5845V9.59128C9.5962 9.51317 9.28626 9.51317 8.98181 9.51317H8.82822V12.4882C8.44354 12.4882 8.13634 12.4101 7.82915 12.4101H7.83189Z" fill="#ECECEC"/>
<path d="M20.4886 6.48438V9.46903C18.4404 9.46903 16.55 8.84072 15.0538 7.741V15.7528C15.0551 16.7035 14.8685 17.6451 14.5045 18.5235C14.1405 19.4019 13.6065 20.1997 12.9329 20.8712C12.2594 21.5427 11.4598 22.0745 10.5799 22.4362C9.70003 22.7979 8.7573 22.9823 7.8059 22.9788C6.32032 22.9838 4.86696 22.5463 3.63135 21.7221C4.62579 22.7776 5.91433 23.5106 7.33025 23.8263C8.74618 24.142 10.2243 24.0258 11.5734 23.4928C12.9226 22.9598 14.0806 22.0345 14.8976 20.8366C15.7147 19.6387 16.1532 18.2234 16.1564 16.7738V8.76261C17.7484 9.88119 19.6457 10.4844 21.5919 10.4906V6.56317C21.2225 6.57317 20.8529 6.54678 20.4886 6.48438Z" fill="#ECECEC"/>
</svg>
