<svg width="27" height="21" viewBox="0 0 27 21" fill="none" xmlns="http://www.w3.org/2000/svg">
<path d="M25.5703 2.70469C25.1715 2.88016 24.7614 3.02825 24.3424 3.14848C24.8385 2.59201 25.2167 1.93725 25.4476 1.22074C25.4993 1.06014 25.4457 0.884345 25.3126 0.779306C25.1797 0.674187 24.995 0.661595 24.8486 0.747624C23.9588 1.27111 22.9987 1.64732 21.9921 1.8673C20.9781 0.884508 19.6008 0.325195 18.177 0.325195C15.1717 0.325195 12.7266 2.75034 12.7266 5.73123C12.7266 5.966 12.7416 6.19947 12.7712 6.4297C9.04189 6.10492 5.57477 4.28677 3.1939 1.38996C3.10905 1.28671 2.97834 1.23106 2.84451 1.2417C2.71061 1.2521 2.59029 1.327 2.52264 1.44211C2.03975 2.26398 1.78447 3.20397 1.78447 4.16036C1.78447 5.46299 2.25335 6.69892 3.08162 7.66465C2.82977 7.57814 2.58538 7.47001 2.35213 7.34158C2.2269 7.27244 2.07407 7.2735 1.94966 7.34426C1.82517 7.41501 1.74712 7.54516 1.74385 7.6874C1.74327 7.71136 1.74327 7.73533 1.74327 7.75962C1.74327 9.70401 2.79832 11.4546 4.41136 12.4087C4.27279 12.395 4.13429 12.3751 3.9967 12.349C3.85485 12.3221 3.70898 12.3714 3.61332 12.4787C3.5175 12.5859 3.4858 12.7354 3.52994 12.8719C4.127 14.7208 5.6642 16.0808 7.52254 16.4954C5.98124 17.453 4.21865 17.9545 2.36834 17.9545C1.98226 17.9545 1.59397 17.932 1.21395 17.8874C1.02516 17.8652 0.844654 17.9757 0.780362 18.1538C0.71607 18.332 0.784211 18.5306 0.944819 18.6327C3.32183 20.1444 6.07035 20.9435 8.89307 20.9435C14.4422 20.9435 17.9136 18.348 19.8485 16.1706C22.2613 13.4556 23.6451 9.86193 23.6451 6.31117C23.6451 6.16284 23.6428 6.01304 23.6382 5.86373C24.5901 5.15234 25.4097 4.2914 26.0766 3.30186C26.178 3.15157 26.167 2.95295 26.0496 2.8146C25.9324 2.67617 25.7371 2.63141 25.5703 2.70469Z" fill="white"/>
</svg>
