<svg width="16" height="16" viewBox="0 0 16 16" fill="none" xmlns="http://www.w3.org/2000/svg">
<path d="M8.60596 11.1673H9.13121C9.65646 11.1673 10.0928 10.6986 10.0928 10.1329C10.0928 9.42991 9.84232 9.29254 9.4302 9.14709L8.61404 8.86426V11.1673H8.60596Z" fill="#2775CA"/>
<path d="M7.976 1.34266e-05C3.56003 0.0160134 -0.0159464 3.608 5.34822e-05 8.02398C0.0160534 12.44 3.60803 16.0159 8.024 15.9999C12.44 15.9839 16.0159 12.392 15.9999 7.97598C15.9839 3.56 12.392 -0.00798654 7.976 1.34266e-05ZM9.80799 8.07998C10.432 8.29598 11.272 8.75998 11.272 10.192C11.272 11.424 10.304 12.416 9.11999 12.416H8.6V12.88C8.6 13.208 8.328 13.48 8 13.48C7.672 13.48 7.4 13.208 7.4 12.88V12.416H7.11201C5.80001 12.416 4.73602 11.312 4.73602 9.95197C4.73602 9.62397 5.00802 9.35197 5.33602 9.35197C5.66402 9.35197 5.93601 9.62397 5.93601 9.95197C5.93601 10.648 6.46401 11.216 7.11201 11.216H7.4V8.51198L6.19201 8.07998C5.56802 7.86398 4.72802 7.39998 4.72802 5.96799C4.72802 4.73599 5.69602 3.744 6.88001 3.744H7.4V3.28C7.4 2.952 7.672 2.68 8 2.68C8.328 2.68 8.6 2.952 8.6 3.28V3.744H8.88799C10.2 3.744 11.264 4.84799 11.264 6.20799C11.264 6.53599 10.992 6.80798 10.664 6.80798C10.336 6.80798 10.064 6.53599 10.064 6.20799C10.064 5.51199 9.53599 4.94399 8.88799 4.94399H8.6V7.64798L9.80799 8.07998Z" fill="#2775CA"/>
<path d="M5.91504 5.87446C5.91504 6.57749 6.16554 6.71486 6.57766 6.86031L7.39383 7.14314V4.83203H6.86857C6.34332 4.83203 5.91504 5.30072 5.91504 5.87446Z" fill="#2775CA"/>
</svg>
