<svg width="16" height="16" viewBox="0 0 16 16" fill="none" xmlns="http://www.w3.org/2000/svg">
<circle cx="8" cy="8" r="8" fill="#F7931A"/>
<path d="M11.0946 7.21607C11.2241 6.37546 10.5652 5.9236 9.66418 5.62216L9.95647 4.48348L9.24283 4.31076L8.95829 5.41947C8.77068 5.37402 8.57802 5.33119 8.38652 5.28874L8.67313 4.17272L7.95993 4L7.66748 5.13831C7.51223 5.10398 7.35974 5.07005 7.2118 5.03429L7.21263 5.03071L6.2285 4.79202L6.03867 5.53235C6.03867 5.53235 6.56813 5.65023 6.55697 5.65748C6.84595 5.72754 6.89821 5.91335 6.88953 6.06062L6.55659 7.35785C6.57649 7.36276 6.6023 7.36986 6.63078 7.38098C6.60697 7.37524 6.58164 7.36897 6.55535 7.36286L6.08867 9.18009C6.05335 9.26537 5.96371 9.39335 5.76166 9.34475C5.76882 9.35481 5.24298 9.21902 5.24298 9.21902L4.88867 10.0125L5.81736 10.2373C5.99013 10.2794 6.15943 10.3234 6.32616 10.3648L6.03085 11.5166L6.74366 11.6893L7.03611 10.5498C7.23084 10.6011 7.41982 10.6485 7.60483 10.6931L7.31336 11.8273L8.02703 12L8.32231 10.8504C9.53922 11.0741 10.4542 10.9839 10.8394 9.91483C11.1497 9.05409 10.8239 8.55761 10.1837 8.23385C10.65 8.1294 11.001 7.83142 11.0946 7.21607ZM9.46414 9.43682C9.24359 10.2976 7.75153 9.83227 7.26778 9.71559L7.65966 8.18973C8.14338 8.30702 9.6946 8.53915 9.46414 9.43682ZM9.68484 7.2036C9.48365 7.98654 8.24179 7.58877 7.83894 7.49124L8.19424 6.10737C8.59709 6.2049 9.89436 6.38695 9.68484 7.2036Z" fill="#FAFAFA"/>
</svg>
